<svg width="730" height="587" viewBox="0 0 730 587" fill="none" xmlns="http://www.w3.org/2000/svg">
<path d="M151.041 345.081H579.77L560.339 313.804H170.472L151.041 345.081Z" fill="#13182D"/>
<path d="M113.523 405.472H617.296L597.865 374.202H132.947L113.523 405.472Z" fill="#13182D"/>
<path d="M76.0068 465.865H654.806L635.375 434.595H95.4381L76.0068 465.865Z" fill="#13182D"/>
<path d="M188.559 284.69H542.261L522.83 253.413H207.982L188.559 284.69Z" fill="#13182D"/>
<path d="M38.4883 526.257H692.33L672.899 494.987H57.9116L38.4883 526.257Z" fill="#13182D"/>
<path d="M0.971191 586.663H729.84L710.409 555.378H20.4024L0.971191 586.663Z" fill="#13182D"/>
<path d="M226.076 224.291H504.736L485.305 193.021H245.507L226.076 224.291Z" fill="#13182D"/>
<path d="M365.409 -0.000137329L338.628 43.1152H392.191L365.409 -0.000137329Z" fill="#13182D"/>
<path d="M263.593 163.899H467.226L447.794 132.629H283.016L263.593 163.899Z" fill="#13182D"/>
<path d="M320.542 72.2232L301.111 103.507H429.701L410.27 72.2232H320.542Z" fill="#13182D"/>
</svg>
