<svg width="268" height="70" viewBox="0 0 268 70" fill="none" xmlns="http://www.w3.org/2000/svg">
<rect x="1" y="1" width="266" height="68" rx="34" fill="#03081B" stroke="white" stroke-width="2"/>
<path d="M52.6271 31.5947L54.455 38.7062C54.5743 39.1686 54.2018 39.6109 53.7246 39.5724L47.2665 39.053L46.4443 38.9869L52.6271 31.5947Z" fill="white"/>
<path d="M46.4405 38.9906L54.5797 29.2585C57.3912 25.8964 58.4409 21.4002 57.4095 17.1406L57.2517 16.4873L45.934 30.0201C45.1173 30.9965 44.8127 32.3031 45.1137 33.5401L46.4405 38.9906Z" fill="white"/>
<path d="M65.1301 31.7197L57.4387 41.0573C54.4161 44.7277 53.315 49.613 54.4694 54.2249L54.4896 54.3056L64.2657 42.4355C65.9798 40.3544 66.6038 37.5814 65.9467 34.968L65.1301 31.7197Z" fill="white"/>
<path d="M58.9988 39.163L57.0021 31.624C56.9379 31.3781 57.1324 31.1413 57.3875 31.1597L65.1266 31.7249L58.9988 39.163Z" fill="white"/>
<path d="M58.999 39.1631L65.1249 31.725L64.6845 31.6938L58.999 39.1631Z" fill="url(#paint0_linear_0_6586)"/>
<path d="M74.2476 38.6271H77.4995C77.4995 40.2861 78.9861 41.4698 81.0525 41.4698C82.84 41.4698 83.9173 40.5871 83.9173 39.4878C83.9173 36.2358 74.398 38.9702 74.398 32.8755C74.398 29.8603 76.9618 27.792 80.6653 27.792C84.3907 27.792 87.083 30.0328 87.083 33.1123H83.9393C83.9613 31.6037 82.6033 30.5283 80.7515 30.5283C79.0503 30.5283 77.9088 31.3248 77.9088 32.402C77.9088 35.5256 87.45 32.8333 87.45 38.9721C87.45 42.0314 84.844 44.2061 80.9461 44.2061C77.0481 44.2061 74.2476 41.8589 74.2476 38.6271Z" fill="white"/>
<path d="M105.844 43.6665H102.053L101.148 40.888H94.9874L94.1267 43.6665H90.3149L95.4627 28.3315H100.719L105.844 43.6665ZM95.7637 38.282H100.416L98.0907 31.433L95.7637 38.282Z" fill="white"/>
<path d="M109.765 43.6665V28.3315H113.384V40.565H119.801V43.6665H109.765Z" fill="white"/>
<path d="M135.094 40.7596V43.6665H124.11V28.3315H134.879V31.2385H127.597V34.5345H134.015V37.0763H127.597V40.7596H135.094Z" fill="white"/>
<path d="M138.238 31.3468V28.3315H151.075V31.3468H146.467V43.6665H142.848V31.3468H138.238Z" fill="white"/>
<path d="M167.852 43.6665H164.063L163.158 40.888H156.997L156.134 43.6665H152.323L157.471 28.3315H162.727L167.852 43.6665ZM157.773 38.282H162.426L160.099 31.433L157.773 38.282Z" fill="white"/>
<path d="M181.917 39.2951V28.3315H185.364V43.6665H181.314L175.197 32.725V43.6665H171.772V28.3315H175.821L181.917 39.2951Z" fill="white"/>
<path d="M205.718 38.3905C205.2 41.7728 202.013 44.2063 198.093 44.2063C193.354 44.2063 189.908 40.7598 189.908 36.0011C189.908 31.2406 193.354 27.7959 198.093 27.7959C201.971 27.7959 205.156 30.2936 205.696 33.7622L202.314 34.1494C201.882 32.2536 200.159 30.8974 198.179 30.8974C195.445 30.8974 193.527 33.0079 193.527 36.0011C193.527 38.9943 195.465 41.1048 198.179 41.1048C200.117 41.1048 201.862 39.7688 202.336 37.9611L205.718 38.3905Z" fill="white"/>
<path d="M207.612 28.3315H211.446L214.848 35.1383L218.1 28.3315H222L216.658 38.3261V43.6684H213.039V38.3261L207.612 28.3315Z" fill="white"/>
<path d="M52.5904 31.5303L47.2133 39.0363L46.4039 38.9629C46.3911 38.961 46.3856 38.9482 46.3929 38.939L52.5904 31.5303Z" fill="url(#paint1_linear_0_6586)"/>
<defs>
<linearGradient id="paint0_linear_0_6586" x1="58.8347" y1="39.0219" x2="65.0157" y2="31.6307" gradientUnits="userSpaceOnUse">
<stop stop-color="#00004F" stop-opacity="0.2"/>
<stop offset="1" stop-color="#050505" stop-opacity="0.6"/>
</linearGradient>
<linearGradient id="paint1_linear_0_6586" x1="46.6482" y1="39.1718" x2="52.8536" y2="31.7522" gradientUnits="userSpaceOnUse">
<stop stop-color="#00004F" stop-opacity="0.2"/>
<stop offset="1" stop-color="#0A0A0A" stop-opacity="0.3"/>
</linearGradient>
</defs>
</svg>
